{"title":"Careful.What.You.Wish.For.2015.DVDRip.XviD.AC3-RARBG","uid":11789586,"size":1353677498,"categoryP":"video","categoryS":"movies","magnet":"?xt=urn:btih:0e3294b295f0df98d4f4dc4f2a513f2a09e7e0e4&amp;dn=Careful.What.You.Wish.For.2015.DVDRip.XviD.AC3-RARBG&amp;tr=udp%3A%2F%2Ftracker.openbittorrent.com%3A80&amp;tr=udp%3A%2F%2Fopen.demonii.com%3A1337&amp;tr=udp%3A%2F%2Ftracker.coppersurfer.tk%3A6969&amp;tr=udp%3A%2F%2Fexodus.desync.com%3A6969","seeders":4,"leechers":2,"uploader":"makintos13","files":4,"time":1427885066,"description":"screen:\n &lt;a href=&quot;\nhttp://imgmak.com/T5&quot; rel=&quot;nofollow&quot; target=&quot;_NEW&quot;&gt;\nhttp://imgmak.com/T5&lt;/a&gt;\n &lt;a href=&quot;\nhttp://imgmak.com/T1&quot; rel=&quot;nofollow&quot; target=&quot;_NEW&quot;&gt;\nhttp://imgmak.com/T1&lt;/a&gt;\n &lt;a href=&quot;\nhttp://imgmak.com/TU&quot; rel=&quot;nofollow&quot; target=&quot;_NEW&quot;&gt;\nhttp://imgmak.com/TU&lt;/a&gt;\n\nFormat                                   : AVI\nFormat/Info                              : Audio Video Interleave\nFile size                                : 1.26 GiB\nDuration                                 : 1h 27mn\nOverall bit rate                         : 2 057 Kbps\nMovie name                             Careful.What.You.Wish.For.2015.DVDRip.XviD.AC3-RARBG\nWriting library                          : VirtualDub build 35491/release\n\nVideo\nID                                       : 0\nFormat                                   : MPEG-4 Visual\nFormat profile                           : Simple@L5\nFormat settings, BVOP                    : No\nFormat settings, QPel                    : No\nFormat settings, GMC                     : No warppoints\nFormat settings, Matrix                  : Default (H.263)\nCodec ID                                 : XVID\nCodec ID/Hint                            : XviD\nDuration                                 : 1h 27mn\nBit rate                                 : 1 599 Kbps\nWidth                                    : 720 pixels\nHeight                                   : 304 pixels\nDisplay aspect ratio                     : 2.35:1\nFrame rate                               : 25.000 fps\nColor space                              : YUV\nChroma subsampling                       : 4:2:0\nBit depth                                : 8 bits\nScan type                                : Progressive\nCompression mode                         : Lossy\nBits/(Pixel*Frame)                       : 0.292\nStream size                              : 1 003 MiB (78%)\nWriting library                          : Lavc56.20.100\n\nAudio\nID                                       : 1\nFormat                                   : AC-3\nFormat/Info                              : Audio Coding 3\nMode extension                           : CM (complete main)\nFormat settings, Endianness              : Big\nCodec ID                                 : 2000\nDuration                                 : 1h 27mn\nBit rate mode                            : Constant\nBit rate                                 : 448 Kbps\nChannel(s)                               : 6 channels\nChannel positions                        : Front: L C R, Side: L R, LFE\nSampling rate                            : 48.0 KHz\nBit depth                                : 16 bits\nCompression mode                         : Lossy\nStream size                              : 281 MiB (22%)\nAlignment                                : Aligned on interleaves\nInterleave, duration                     : 40 ms (1.00 video frame)\nInterleave, preload duration             : 512 ms","torrent":{"xt":"urn:btih:0e3294b295f0df98d4f4dc4f2a513f2a09e7e0e4","amp;dn":"Careful.What.You.Wish.For.2015.DVDRip.XviD.AC3-RARBG","amp;tr":["udp%3A%2F%2Ftracker.openbittorrent.com%3A80","udp%3A%2F%2Fopen.demonii.com%3A1337","udp%3A%2F%2Ftracker.coppersurfer.tk%3A6969","udp%3A%2F%2Fexodus.desync.com%3A6969"],"infoHash":"0e3294b295f0df98d4f4dc4f2a513f2a09e7e0e4","infoHashBuffer":{"type":"Buffer","data":[14,50,148,178,149,240,223,152,212,244,220,79,42,81,63,42,9,231,224,228]},"announce":[],"urlList":[]}}